<?xml version="1.0" encoding="UTF-8"?><svg id="Layer_2" xmlns="http://www.w3.org/2000/svg" viewBox="0 0 112.44 146.92"><defs><style>.cls-1{fill:#333;stroke-width:0px;}</style></defs><g id="Layer_1-2"><path class="cls-1" d="M73.33,146.92h-.08c-20.19-.36-38.79-8.16-52.39-21.96C7.36,111.25-.05,92.86,0,73.16c.05-19.67,7.39-38,20.66-51.61C34.21,7.65,52.84,0,73.13,0c.09,0,.17,0,.26,0,9.21.03,18.06,1.55,26.29,4.52l12.76,6.8-12.97,1.74c-26.47,8.07-44.31,32.7-44.38,61.31-.06,27.17,16.12,50.86,41.22,60.35l11.46,3.33-11.67,5.16c-7.24,2.33-14.87,3.58-22.69,3.72h-.08ZM73.13,9c-17.84,0-34.18,6.68-46.03,18.83-11.63,11.92-18.06,28.03-18.1,45.35-.05,17.31,6.44,33.46,18.27,45.46,11.92,12.09,28.27,18.94,46.06,19.28,2.65-.05,5.27-.24,7.85-.58-21.73-13.07-35.16-36.6-35.09-63,.07-27.71,14.84-52.17,37.88-64.54-3.45-.52-6.99-.79-10.6-.8-.08,0-.15,0-.23,0Z"/></g></svg>