<svg width="35" height="39" viewBox="0 0 35 39" fill="none" xmlns="http://www.w3.org/2000/svg">
<path d="M1.57895 14.6053H1M1.57895 14.6053L13.2944 25.8948M1.57895 14.6053H5.70081M21.5526 25.8948H13.2944M21.5526 25.8948L32.8421 37.7632M21.5526 25.8948L29.1837 18.5773M33.4211 14.6053H34M33.4211 14.6053H29.1837M33.4211 14.6053L29.1837 18.5773M1 14.6053V37.7632H2.15789M1 14.6053L17.5 1L29.1837 10.6339M34 14.6053L33.9355 37.7632H32.8421M34 14.6053L29.1837 10.6339M13.2944 25.8948L2.15789 37.7632M2.15789 37.7632H32.8421M5.70081 14.6053V10.6339H29.1837M5.70081 14.6053V18.5773M29.1837 14.6053V18.5773M29.1837 14.6053V10.6339" stroke="#E1ECEB" stroke-width="1.5"/>
<path d="M9.68457 14.6053H25.6056" stroke="#E1ECEB" stroke-width="1.5"/>
<path d="M9.68457 17.5H25.6056" stroke="#E1ECEB" stroke-width="1.5"/>
<path d="M9.68457 20.3947H25.6056" stroke="#E1ECEB" stroke-width="1.5"/>
</svg>
