<?xml version="1.0" encoding="UTF-8"?><svg id="Layer_2" xmlns="http://www.w3.org/2000/svg" viewBox="0 0 229.93 229.7"><defs><style>.cls-1{fill:#f8f8f8;stroke-width:0px;}</style></defs><g id="Layer_1-2"><path class="cls-1" d="M170.2,66.37c10.54,13.13,17.4,27.55,17.86,44.67h41.87v8.38h-41.71c-1.87,16.22-7.88,30.61-17.9,43.37,11.87,12.13,23.62,24.13,35.61,36.38-2.33,2.06-4.54,4.01-6.95,6.12-11.63-11.83-23.21-23.59-34.87-35.45-1.74,1.17-3,1.93-4.17,2.81-11.32,8.49-24.03,13.4-38.09,14.79-1.78.18-2.14.87-2.13,2.49.05,12.31.03,24.63.03,36.94,0,.89,0,1.79,0,2.83h-9.39v-2.78c0-12.15-.04-24.3.04-36.44.01-1.97-.31-2.89-2.56-3.16-14.51-1.72-27.63-6.99-39.26-15.88-.39-.3-.83-.53-1.4-.88-12.18,11.51-24.32,22.98-36.53,34.52-2.02-2.11-3.96-4.14-5.97-6.25,11.69-11.59,23.54-23.33,35.38-35.07-2.46-3.6-4.64-6.63-6.64-9.77-6.36-9.98-10.2-20.87-11.35-32.65-.2-2.08-1.06-2.36-2.82-2.35-12.06.05-24.13.03-36.19.03-.97,0-1.94,0-3.06,0v-8.36h41.8c.97-16.74,7.1-31.09,18.07-43.82-12.11-11.69-24.11-23.28-36.23-34.98,2.62-3.14,4.51-5.41,6.53-7.83,12.18,11.76,24.26,23.42,36.49,35.23,13.04-9.46,27.17-16.11,43.65-17.3V0h9.37v41.91c16.66.8,30.97,7.05,43.6,17.63,12.13-11.87,24.06-23.55,35.88-35.12,2.16,2.16,4.24,4.24,6.49,6.5-11.57,11.56-23.38,23.37-35.46,35.45ZM114.63,178.9c35.81-.63,64.04-27.83,63.95-63.92-.08-36.18-26.84-63.87-63.91-63.99-37.35-.12-63.79,28.82-63.88,63.69-.09,35.3,27.2,63.57,63.84,64.22Z"/></g></svg>